<svg width="18" height="18" viewBox="0 0 15 15" fill="none" xmlns="http://www.w3.org/2000/svg">
    <path d="M5.26368 8.86564L4.22896 9.90036H12.8516V11.28H3.88406C3.53915 11.28 3.53915 10.9351 3.19424 10.9351C3.19424 10.9351 2.84934 10.5902 2.84934 10.2453V9.90036C2.84934 9.55545 3.19424 9.21055 3.19424 9.21055L4.22896 8.17583C4.22896 7.83092 4.22896 7.83092 3.88406 7.48602L1.81462 3.00223L1.46971 1.96752H0.0900879V0.587891H2.15953L2.84934 2.31242H14.2312L12.1618 7.48602C12.1618 8.17583 11.472 8.86564 10.7822 8.86564H5.26368Z M4.91869 14.3841C5.68063 14.3841 6.29831 13.7664 6.29831 13.0045C6.29831 12.2426 5.68063 11.6249 4.91869 11.6249C4.15674 11.6249 3.53906 12.2426 3.53906 13.0045C3.53906 13.7664 4.15674 14.3841 4.91869 14.3841Z M11.8169 14.3841C12.5788 14.3841 13.1965 13.7664 13.1965 13.0045C13.1965 12.2426 12.5788 11.6249 11.8169 11.6249C11.0549 11.6249 10.4373 12.2426 10.4373 13.0045C10.4373 13.7664 11.0549 14.3841 11.8169 14.3841Z" fill="#FEFEFE"/>
</svg>