<svg xmlns="http://www.w3.org/2000/svg" xml:space="preserve" width="30.333" height="30.333" style="shape-rendering:geometricPrecision;text-rendering:geometricPrecision;image-rendering:optimizeQuality;fill-rule:evenodd;clip-rule:evenodd" viewBox="0 0 90 90"><g id="Capa_x0020_1"><circle cx="45" cy="45" r="45" style="fill:#f58634"/><g id="_1314156349776"><path d="M21 36c-1 0-2-1-2-3s1-3 2-3h48c1 0 3 1 3 3s-2 3-3 3H21zM21 48c-1 0-2-1-2-3 0-1 1-3 2-3h48c1 0 3 2 3 3 0 2-2 3-3 3H21zM21 60c-1 0-2-1-2-3 0-1 1-3 2-3h48c1 0 3 2 3 3 0 2-2 3-3 3H21z" style="fill:#ffffff"/></g></g></svg>