<svg width="26" height="28" viewBox="0 0 22 24" fill="none" xmlns="http://www.w3.org/2000/svg">
<path fill-rule="evenodd" clip-rule="evenodd" d="M4.93143 13.5531H3.11195L8.08881 7.82892L13.6028 1.48539L12.6075 0.909453C11.6256 0.343659 10.4185 0.343659 9.43851 0.909453L2.04719 5.17809C1.97953 5.21702 1.91375 5.25894 1.8495 5.3024C1.83136 5.31488 1.81405 5.32809 1.79591 5.34094C1.75093 5.37306 1.70671 5.40554 1.66363 5.43956C1.64284 5.45619 1.62232 5.47319 1.60191 5.4902C1.56298 5.5227 1.52527 5.55554 1.48823 5.58956C1.46782 5.60846 1.44735 5.62742 1.4277 5.64669C1.3918 5.68147 1.35712 5.717 1.32273 5.75329C1.30459 5.77294 1.28602 5.79187 1.26825 5.8119C1.23046 5.85385 1.19459 5.8976 1.15944 5.94182C1.14773 5.95618 1.13491 5.97063 1.12357 5.98537C1.07708 6.04547 1.03279 6.10739 0.990842 6.17051C0.984795 6.17958 0.979911 6.18861 0.973864 6.19768C0.938336 6.25248 0.90435 6.30891 0.871846 6.36598C0.862397 6.38337 0.853244 6.40078 0.843795 6.41854C0.816583 6.46919 0.790114 6.52058 0.765547 6.57312C0.761768 6.58106 0.757221 6.58857 0.753441 6.59689C0.750039 6.60407 0.747754 6.61156 0.74473 6.61874C0.702022 6.71285 0.663128 6.80851 0.629869 6.90678C0.627979 6.91207 0.626886 6.91773 0.624996 6.92302C0.594382 7.01486 0.569113 7.10822 0.547192 7.20309C0.542656 7.22161 0.538062 7.23978 0.533904 7.2583C0.513495 7.35468 0.497639 7.45177 0.485922 7.55003C0.483654 7.57044 0.481759 7.5909 0.479869 7.6113C0.469664 7.71373 0.462891 7.81732 0.462891 7.92164V16.2022V16.4561C0.462891 17.0567 0.632201 17.6345 0.942122 18.1274C1.20971 18.5624 1.58722 18.934 2.04719 19.1997L7.15293 22.1472L9.08019 13.5531H4.93143Z" fill="#FEFEFE"/>
<path fill-rule="evenodd" clip-rule="evenodd" d="M21.1025 6.24863C20.835 5.81361 20.4577 5.44204 19.9973 5.17634L14.8916 2.22876L12.9645 10.823H17.1135H18.9327L13.9562 16.5471L8.44189 22.8906L9.43741 23.4663C10.4193 24.0324 11.6264 24.0324 12.6065 23.4663L19.9973 19.1981C20.0654 19.1591 20.1308 19.1172 20.195 19.0737C20.2135 19.0613 20.2309 19.0479 20.249 19.0351C20.2936 19.0029 20.3382 18.9705 20.3813 18.9364C20.4021 18.9198 20.4225 18.9028 20.4429 18.8858C20.4814 18.8533 20.5192 18.8205 20.5563 18.7864C20.5771 18.7675 20.5972 18.7486 20.6173 18.7293C20.6532 18.6945 20.6878 18.6587 20.7222 18.6224C20.7404 18.6031 20.7585 18.5842 20.7763 18.5645C20.8141 18.5222 20.8504 18.4784 20.8855 18.4342C20.8972 18.4194 20.9097 18.4055 20.9214 18.3908C20.9679 18.3307 21.0122 18.2686 21.0541 18.2055C21.0598 18.1964 21.0651 18.1874 21.0708 18.1783C21.1067 18.1231 21.1407 18.0672 21.1728 18.0102C21.1826 17.9928 21.1916 17.9754 21.2007 17.9576C21.2283 17.907 21.2548 17.8556 21.2794 17.803C21.2832 17.7951 21.2877 17.7872 21.2915 17.7793C21.2945 17.7721 21.2968 17.7644 21.3002 17.7573C21.3426 17.6632 21.3818 17.5671 21.4151 17.4692C21.4166 17.4639 21.4181 17.4583 21.42 17.453C21.4502 17.3611 21.4758 17.2678 21.4978 17.1729C21.5019 17.1544 21.5068 17.1364 21.5106 17.1178C21.5314 17.0215 21.5473 16.9242 21.559 16.826C21.5613 16.8056 21.5632 16.7853 21.5651 16.7648C21.5753 16.6624 21.5821 16.5588 21.5821 16.4545V8.17397V7.91989C21.5821 7.31894 21.4125 6.74148 21.1025 6.24863Z" fill="#FEFEFE"/>
</svg>
