<svg width="99" height="49" viewBox="0 0 99 49" fill="none" xmlns="http://www.w3.org/2000/svg">
<path d="M72.59 20.0388V30.8207H63.7277V5.39105L72.59 20.0388Z" fill="#373435"/>
<path d="M98.2563 5.23322L98.3352 30.8207H89.4729L89.4203 19.8546L98.2563 5.23322Z" fill="#373435"/>
<path d="M98.2563 1.97235V3.26093C92.9705 12.0443 88.2633 19.5654 83.1353 28.2173H78.8488C73.7207 19.9336 68.7505 11.7813 63.7277 3.41871V1.97235H71.7221L81.1103 17.3564L90.2619 1.97235H98.2563Z" fill="#F58634"/>
<path d="M52.7616 30.8207H43.0315V9.51974H34.59V1.97235H61.2031V9.51974H52.7616V30.8207Z" fill="#373435"/>
<path d="M2.28462 47.4439V41.7324H0.0387224V40.6675H5.78899V41.7324H3.5431V47.4439H2.28462ZM9.52441 47.5407C8.59508 47.5407 7.86581 47.2793 7.3366 46.7566C6.81385 46.2338 6.55247 45.4787 6.55247 44.4913V40.6675H7.81095V44.4429C7.81095 45.1399 7.95938 45.6465 8.25626 45.9628C8.55958 46.279 8.98553 46.4371 9.53409 46.4371C10.0827 46.4371 10.5054 46.279 10.8023 45.9628C11.0991 45.6465 11.2476 45.1399 11.2476 44.4429V40.6675H12.4867V44.4913C12.4867 45.4787 12.2221 46.2338 11.6929 46.7566C11.1701 47.2793 10.4473 47.5407 9.52441 47.5407ZM16.9245 47.4439V40.6675H17.9604L20.9226 45.6143H20.3805L23.2944 40.6675H24.3302L24.3399 47.4439H23.1492L23.1395 42.5359H23.3912L20.9129 46.6695H20.3515L17.8345 42.5359H18.1249V47.4439H16.9245ZM27.3319 43.4845H30.7008V44.5204H27.3319V43.4845ZM27.4287 46.3887H31.2526V47.4439H26.1703V40.6675H31.117V41.7227H27.4287V46.3887ZM33.7107 47.5407C33.2783 47.5407 32.8782 47.4568 32.5103 47.289C32.1489 47.1212 31.852 46.8792 31.6197 46.563L32.336 45.7014C32.5232 45.9596 32.7265 46.1532 32.9459 46.2822C33.1718 46.4113 33.417 46.4758 33.6816 46.4758C34.3851 46.4758 34.7368 46.0596 34.7368 45.2271V41.7227H32.3264V40.6675H35.9953V45.1593C35.9953 45.9596 35.7985 46.5565 35.4048 46.9502C35.0176 47.3439 34.4529 47.5407 33.7107 47.5407ZM40.9357 47.5407C40.4065 47.5407 39.9193 47.4536 39.474 47.2793C39.0287 47.1051 38.6414 46.8631 38.3123 46.5533C37.9831 46.2371 37.7282 45.8692 37.5475 45.4497C37.3668 45.0238 37.2765 44.5591 37.2765 44.0557C37.2765 43.5523 37.3668 43.0909 37.5475 42.6714C37.7282 42.2454 37.9831 41.8776 38.3123 41.5678C38.6414 41.2516 39.0287 41.0063 39.474 40.8321C39.9193 40.6578 40.4033 40.5707 40.926 40.5707C41.4553 40.5707 41.9393 40.6578 42.3781 40.8321C42.8234 41.0063 43.2107 41.2516 43.5398 41.5678C43.8689 41.8776 44.1239 42.2454 44.3046 42.6714C44.4853 43.0909 44.5756 43.5523 44.5756 44.0557C44.5756 44.5591 44.4853 45.0238 44.3046 45.4497C44.1239 45.8757 43.8689 46.2435 43.5398 46.5533C43.2107 46.8631 42.8234 47.1051 42.3781 47.2793C41.9393 47.4536 41.4585 47.5407 40.9357 47.5407ZM40.926 46.4371C41.2681 46.4371 41.5843 46.379 41.8747 46.2629C42.1652 46.1467 42.4169 45.9821 42.6298 45.7692C42.8428 45.5497 43.0074 45.298 43.1235 45.0141C43.2462 44.7237 43.3075 44.4042 43.3075 44.0557C43.3075 43.7072 43.2462 43.391 43.1235 43.107C43.0074 42.8166 42.8428 42.5649 42.6298 42.3519C42.4169 42.1325 42.1652 41.9647 41.8747 41.8485C41.5843 41.7324 41.2681 41.6743 40.926 41.6743C40.584 41.6743 40.2678 41.7324 39.9774 41.8485C39.6934 41.9647 39.4417 42.1325 39.2223 42.3519C39.0093 42.5649 38.8415 42.8166 38.7189 43.107C38.6027 43.391 38.5446 43.7072 38.5446 44.0557C38.5446 44.3978 38.6027 44.714 38.7189 45.0044C38.8415 45.2948 39.0093 45.5497 39.2223 45.7692C39.4352 45.9821 39.6869 46.1467 39.9774 46.2629C40.2678 46.379 40.584 46.4371 40.926 46.4371ZM45.9096 47.4439V40.6675H48.6976C49.2978 40.6675 49.8109 40.7643 50.2368 40.9579C50.6692 41.1515 51.0016 41.429 51.2339 41.7904C51.4662 42.1519 51.5824 42.581 51.5824 43.078C51.5824 43.5749 51.4662 44.0041 51.2339 44.3655C51.0016 44.7204 50.6692 44.9947 50.2368 45.1883C49.8109 45.3755 49.2978 45.4691 48.6976 45.4691H46.6066L47.1681 44.8979V47.4439H45.9096ZM50.3433 47.4439L48.6298 44.985H49.9754L51.6986 47.4439H50.3433ZM47.1681 45.0334L46.6066 44.4332H48.6395C49.1945 44.4332 49.6108 44.3139 49.8883 44.0751C50.1723 43.8363 50.3143 43.5039 50.3143 43.078C50.3143 42.6456 50.1723 42.3132 49.8883 42.0809C49.6108 41.8485 49.1945 41.7324 48.6395 41.7324H46.6066L47.1681 41.1128V45.0334Z" fill="#373435"/>
<path d="M57.1919 47.4439L54.2297 40.6675H55.5946L58.2374 46.7953H57.4533L60.1252 40.6675H61.3836L58.431 47.4439H57.1919ZM63.2698 43.4845H66.6387V44.5204H63.2698V43.4845ZM63.3666 46.3887H67.1905V47.4439H62.1082V40.6675H67.0549V41.7227H63.3666V46.3887ZM68.5934 47.4439V40.6675H71.3814C71.9816 40.6675 72.4947 40.7643 72.9206 40.9579C73.353 41.1515 73.6854 41.429 73.9177 41.7904C74.1501 42.1519 74.2662 42.581 74.2662 43.078C74.2662 43.5749 74.1501 44.0041 73.9177 44.3655C73.6854 44.7204 73.353 44.9947 72.9206 45.1883C72.4947 45.3755 71.9816 45.4691 71.3814 45.4691H69.2904L69.8519 44.8979V47.4439H68.5934ZM73.0271 47.4439L71.3136 44.985H72.6592L74.3824 47.4439H73.0271ZM69.8519 45.0334L69.2904 44.4332H71.3233C71.8783 44.4332 72.2946 44.3139 72.5721 44.0751C72.8561 43.8363 72.9981 43.5039 72.9981 43.078C72.9981 42.6456 72.8561 42.3132 72.5721 42.0809C72.2946 41.8485 71.8783 41.7324 71.3233 41.7324H69.2904L69.8519 41.1128V45.0334ZM77.7749 47.5407C77.2457 47.5407 76.7391 47.4665 76.2551 47.3181C75.771 47.1632 75.387 46.9663 75.1031 46.7275L75.5387 45.7498C75.8097 45.9628 76.1453 46.1403 76.5455 46.2822C76.9456 46.4242 77.3554 46.4952 77.7749 46.4952C78.1299 46.4952 78.4171 46.4565 78.6365 46.379C78.8559 46.3016 79.0172 46.1983 79.1205 46.0693C79.2238 45.9337 79.2754 45.7821 79.2754 45.6143C79.2754 45.4078 79.2012 45.2432 79.0527 45.1206C78.9043 44.9915 78.7107 44.8915 78.4719 44.8205C78.2396 44.743 77.9782 44.672 77.6878 44.6075C77.4038 44.543 77.1166 44.4687 76.8262 44.3848C76.5422 44.2945 76.2809 44.1816 76.0421 44.046C75.8097 43.904 75.6194 43.7169 75.4709 43.4845C75.3225 43.2522 75.2483 42.9553 75.2483 42.5939C75.2483 42.2261 75.3451 41.8905 75.5387 41.5872C75.7388 41.2774 76.0389 41.0321 76.439 40.8514C76.8456 40.6643 77.3586 40.5707 77.9782 40.5707C78.3848 40.5707 78.7881 40.6223 79.1883 40.7256C79.5884 40.8288 79.9369 40.9773 80.2338 41.1709L79.8369 42.1486C79.5335 41.9679 79.2205 41.8356 78.8979 41.7517C78.5752 41.6614 78.2654 41.6162 77.9685 41.6162C77.62 41.6162 77.3361 41.6581 77.1166 41.742C76.9037 41.8259 76.7455 41.9357 76.6423 42.0712C76.5455 42.2067 76.4971 42.3616 76.4971 42.5359C76.4971 42.7424 76.5681 42.9102 76.71 43.0392C76.8585 43.1619 77.0489 43.2587 77.2812 43.3297C77.52 43.4006 77.7846 43.4716 78.075 43.5426C78.3654 43.6072 78.6526 43.6814 78.9366 43.7653C79.227 43.8492 79.4884 43.9589 79.7207 44.0944C79.9595 44.23 80.1499 44.4139 80.2919 44.6462C80.4403 44.8786 80.5145 45.1722 80.5145 45.5272C80.5145 45.8886 80.4145 46.2242 80.2144 46.5339C80.0208 46.8373 79.7207 47.0825 79.3141 47.2697C78.9075 47.4504 78.3945 47.5407 77.7749 47.5407ZM81.7624 47.4439V40.6675H83.0209V47.4439H81.7624ZM88.029 47.5407C87.4998 47.5407 87.0125 47.4536 86.5672 47.2793C86.1219 47.1051 85.7347 46.8631 85.4056 46.5533C85.0764 46.2371 84.8215 45.8692 84.6408 45.4497C84.4601 45.0238 84.3697 44.5591 84.3697 44.0557C84.3697 43.5523 84.4601 43.0909 84.6408 42.6714C84.8215 42.2454 85.0764 41.8776 85.4056 41.5678C85.7347 41.2516 86.1219 41.0063 86.5672 40.8321C87.0125 40.6578 87.4966 40.5707 88.0193 40.5707C88.5485 40.5707 89.0325 40.6578 89.4714 40.8321C89.9167 41.0063 90.3039 41.2516 90.6331 41.5678C90.9622 41.8776 91.2171 42.2454 91.3978 42.6714C91.5785 43.0909 91.6689 43.5523 91.6689 44.0557C91.6689 44.5591 91.5785 45.0238 91.3978 45.4497C91.2171 45.8757 90.9622 46.2435 90.6331 46.5533C90.3039 46.8631 89.9167 47.1051 89.4714 47.2793C89.0325 47.4536 88.5517 47.5407 88.029 47.5407ZM88.0193 46.4371C88.3614 46.4371 88.6776 46.379 88.968 46.2629C89.2584 46.1467 89.5101 45.9821 89.7231 45.7692C89.9361 45.5497 90.1006 45.298 90.2168 45.0141C90.3394 44.7237 90.4007 44.4042 90.4007 44.0557C90.4007 43.7072 90.3394 43.391 90.2168 43.107C90.1006 42.8166 89.9361 42.5649 89.7231 42.3519C89.5101 42.1325 89.2584 41.9647 88.968 41.8485C88.6776 41.7324 88.3614 41.6743 88.0193 41.6743C87.6773 41.6743 87.361 41.7324 87.0706 41.8485C86.7866 41.9647 86.535 42.1325 86.3155 42.3519C86.1026 42.5649 85.9348 42.8166 85.8121 43.107C85.696 43.391 85.6379 43.7072 85.6379 44.0557C85.6379 44.3978 85.696 44.714 85.8121 45.0044C85.9348 45.2948 86.1026 45.5497 86.3155 45.7692C86.5285 45.9821 86.7802 46.1467 87.0706 46.2629C87.361 46.379 87.6773 46.4371 88.0193 46.4371ZM93.0028 47.4439V40.6675H94.0387L98.2884 45.8853H97.7754V40.6675H99.0242V47.4439H97.9884L93.7386 42.2261H94.2516V47.4439H93.0028Z" fill="#F58634"/>
<path d="M6.29391 18.1979H3.76935L10.6856 10.2297L18.3645 1.39379L16.9707 0.578563C15.6032 -0.184065 13.9202 -0.184065 12.5527 0.578563L2.27039 6.5218C2.1915 6.5744 2.08631 6.65329 2.00742 6.70588C1.98112 6.73218 1.95482 6.73218 1.92852 6.75848C1.84963 6.81107 1.79704 6.83737 1.74444 6.88997C1.71814 6.91626 1.69185 6.94256 1.66555 6.96886C1.61295 7.02145 1.56036 7.04775 1.50776 7.10035C1.45517 7.12664 1.42887 7.15294 1.40257 7.17924C1.34998 7.23183 1.32368 7.28443 1.27109 7.33702C1.24479 7.36332 1.21849 7.38962 1.19219 7.41592C1.1396 7.46851 1.087 7.5474 1.03441 7.6C1.03441 7.6263 1.00811 7.6263 0.981814 7.65259C0.929219 7.73149 0.850327 7.83668 0.797732 7.91557C0.797732 7.91557 0.797732 7.94187 0.771434 7.94187C0.718839 8.02076 0.692542 8.09965 0.639947 8.17854C0.613649 8.20484 0.613649 8.23114 0.587352 8.25744C0.561054 8.33633 0.534757 8.38892 0.482162 8.46782C0.482162 8.49411 0.482162 8.49411 0.482162 8.52041C0.455864 8.52041 0.455864 8.52041 0.455864 8.54671C0.403269 8.6782 0.350674 8.80968 0.298079 8.94117V8.96747C0.245484 9.09896 0.219186 9.23044 0.192889 9.36193C0.192889 9.38823 0.166591 9.41453 0.166591 9.44082C0.140294 9.57231 0.113996 9.7038 0.113996 9.83529C0.0876989 9.86158 0.0876989 9.88788 0.0876989 9.91418C0.0876989 10.072 0.0614014 10.2035 0.0614014 10.3612V21.8795V22.2214C0.0614014 23.0629 0.298079 23.8782 0.745137 24.5619C1.1133 25.1667 1.63925 25.6927 2.27039 26.0609L9.37072 30.1633L12.0531 18.1979H6.29391Z" fill="#F58634"/>
<path d="M28.8046 8.02074C28.4364 7.4159 27.9105 6.88995 27.253 6.52178L20.1527 2.41937L17.4703 14.3847H23.2558H25.7804L18.8641 22.3529L11.1852 31.1889L12.5527 32.0041C13.9202 32.7667 15.6032 32.7667 16.9707 32.0041L27.253 26.0608C27.3582 26.0082 27.4371 25.9293 27.5423 25.8768C27.5686 25.8505 27.5949 25.8505 27.6212 25.8242C27.6738 25.7716 27.7264 25.7453 27.8053 25.6927C27.8316 25.6664 27.8579 25.6401 27.8842 25.6138C27.9368 25.5612 27.9894 25.5349 28.0419 25.4823C28.0682 25.456 28.0945 25.4297 28.1208 25.4034C28.1734 25.3508 28.226 25.2982 28.2786 25.2456C28.3049 25.2193 28.3312 25.193 28.3575 25.1667C28.4101 25.1141 28.4364 25.0352 28.489 24.9826C28.5153 24.9563 28.5416 24.9563 28.5416 24.93C28.6205 24.8512 28.6731 24.746 28.7257 24.6671C28.752 24.6671 28.752 24.6408 28.752 24.6408C28.8046 24.5619 28.8572 24.483 28.9098 24.4041C28.9098 24.3778 28.9361 24.3515 28.9361 24.3252C28.9887 24.2463 29.015 24.1937 29.0413 24.1148C29.0413 24.0885 29.0675 24.0885 29.0675 24.0622C29.0675 24.0622 29.0675 24.0622 29.0675 24.0359C29.1464 23.9044 29.199 23.773 29.2253 23.6415L29.2516 23.6152C29.2779 23.4837 29.3305 23.3522 29.3568 23.2207C29.3568 23.1944 29.3568 23.1681 29.3568 23.1418C29.4094 23.0103 29.4094 22.8788 29.4357 22.7473C29.4357 22.7211 29.4357 22.6948 29.4357 22.6685C29.462 22.5107 29.462 22.3792 29.462 22.2214V10.7031V10.3612C29.462 9.5197 29.2253 8.70448 28.8046 8.02074Z" fill="#F58634"/>
</svg>
