<svg width="19" height="11" viewBox="0 0 19 11" fill="none" xmlns="http://www.w3.org/2000/svg">
<path fill-rule="evenodd" clip-rule="evenodd" d="M1.07769 2.13322C0.740659 2.13322 0.403625 1.79619 0.403625 1.12212C0.403625 0.448056 0.740659 0.111023 1.07769 0.111023H17.2553C17.5923 0.111023 18.2664 0.448056 18.2664 1.12212C18.2664 1.79619 17.5923 2.13322 17.2553 2.13322H1.07769ZM1.07769 6.17762C0.740659 6.17762 0.403625 5.84059 0.403625 5.16652C0.403625 4.82949 0.740659 4.15542 1.07769 4.15542H17.2553C17.5923 4.15542 18.2664 4.82949 18.2664 5.16652C18.2664 5.84059 17.5923 6.17762 17.2553 6.17762H1.07769ZM1.07769 10.222C0.740659 10.222 0.403625 9.88499 0.403625 9.21092C0.403625 8.87389 0.740659 8.19982 1.07769 8.19982H17.2553C17.5923 8.19982 18.2664 8.87389 18.2664 9.21092C18.2664 9.88499 17.5923 10.222 17.2553 10.222H1.07769Z" fill="white"/>
</svg>
